<svg width="44" height="44" viewBox="0 0 44 44" fill="none" xmlns="http://www.w3.org/2000/svg">
<path d="M22 44C9.84677 44 0 34.1532 0 22C0 9.84677 9.84677 0 22 0C34.1532 0 44 9.84677 44 22C44 34.1532 34.1532 44 22 44ZM24.5637 31.2613L17.8661 24.8387H34.0645C35.2444 24.8387 36.1935 23.8895 36.1935 22.7097V21.2903C36.1935 20.1105 35.2444 19.1613 34.0645 19.1613H17.8661L24.5637 12.7387C25.4242 11.9137 25.4419 10.5387 24.5992 9.69597L23.6234 8.72903C22.7895 7.89516 21.4411 7.89516 20.6161 8.72903L8.84435 20.4919C8.01048 21.3258 8.01048 22.6742 8.84435 23.4992L20.6161 35.271C21.45 36.1048 22.7984 36.1048 23.6234 35.271L24.5992 34.304C25.4419 33.4613 25.4242 32.0863 24.5637 31.2613Z" fill="white"/>
</svg>
