<svg width="32" height="24" viewBox="0 0 32 24" fill="none" xmlns="http://www.w3.org/2000/svg">
<path d="M29 0H3C1.34312 0 0 1.34312 0 3V21C0 22.6569 1.34312 24 3 24H29C30.6569 24 32 22.6569 32 21V3C32 1.34312 30.6569 0 29 0ZM29 3V5.55031C27.5986 6.6915 25.3645 8.466 20.5883 12.2059C19.5357 13.0339 17.4507 15.0229 16 14.9998C14.5495 15.0232 12.4638 13.0336 11.4117 12.2059C6.63625 8.46656 4.40156 6.69169 3 5.55031V3H29ZM3 21V9.39987C4.43212 10.5406 6.46306 12.1413 9.55862 14.5653C10.9247 15.6406 13.317 18.0144 16 17.9999C18.6698 18.0144 21.0318 15.675 22.4408 14.5658C25.5363 12.1418 27.5678 10.5407 29 9.39994V21H3Z" fill="#0066F2"/>
</svg>
