<svg width="31" height="36" viewBox="0 0 31 36" fill="none" xmlns="http://www.w3.org/2000/svg">
<path d="M15.5 17.7143C20.3922 17.7143 24.3571 13.7493 24.3571 8.85714C24.3571 3.96495 20.3922 0 15.5 0C10.6078 0 6.64285 3.96495 6.64285 8.85714C6.64285 13.7493 10.6078 17.7143 15.5 17.7143ZM21.7 19.9286H20.5444C19.0082 20.6344 17.2991 21.0357 15.5 21.0357C13.7009 21.0357 11.9987 20.6344 10.4556 19.9286H9.29999C4.16562 19.9286 0 24.0942 0 29.2285V32.1071C0 33.9408 1.48772 35.4285 3.32143 35.4285H27.6785C29.5123 35.4285 31 33.9408 31 32.1071V29.2285C31 24.0942 26.8344 19.9286 21.7 19.9286Z" fill="white"/>
</svg>
