<svg width="28" height="34" viewBox="0 0 28 34" fill="none" xmlns="http://www.w3.org/2000/svg">
<path d="M12.1904 33.314C1.90851 19.3263 0 17.8907 0 12.75C0 5.70835 6.08295 0 13.5867 0C21.0905 0 27.1734 5.70835 27.1734 12.75C27.1734 17.8907 25.2649 19.3263 14.983 33.314C14.3083 34.2287 12.8651 34.2286 12.1904 33.314ZM13.5867 18.0625C16.7133 18.0625 19.2478 15.684 19.2478 12.75C19.2478 9.81598 16.7133 7.4375 13.5867 7.4375C10.4601 7.4375 7.92558 9.81598 7.92558 12.75C7.92558 15.684 10.4601 18.0625 13.5867 18.0625Z" fill="white"/>
</svg>
