<svg width="37" height="31" viewBox="0 0 37 31" fill="none" xmlns="http://www.w3.org/2000/svg">
<path d="M28.529 14.9319V24.3049H31.429V14.9319H28.529ZM24.1789 28.3219H12.5786V30.9999H24.1789V28.3219ZM8.22854 24.3049V14.9319H5.32848V24.3049H8.22854ZM12.5786 28.3219C11.1706 28.3219 10.26 28.3192 9.59011 28.2362C8.9608 28.1572 8.7636 28.0313 8.6534 27.9296L6.60305 29.8229C7.34257 30.5058 8.25319 30.7722 9.20296 30.8901C10.1136 31.0026 11.2518 30.9999 12.5786 30.9999V28.3219ZM5.32848 24.3049C5.32848 25.5301 5.32558 26.5825 5.44738 27.4221C5.57498 28.2991 5.86354 29.1413 6.60305 29.8229L8.6534 27.9296C8.54319 27.8278 8.40689 27.6457 8.32134 27.0646C8.23144 26.4473 8.22854 25.6051 8.22854 24.3049H5.32848ZM28.529 24.3049C28.529 25.6051 28.5261 26.446 28.4362 27.0646C28.3506 27.6457 28.2143 27.8278 28.1041 27.9296L30.1544 29.8229C30.894 29.14 31.1825 28.2991 31.3101 27.4221C31.4319 26.5812 31.429 25.5301 31.429 24.3049H28.529ZM24.1789 30.9999C25.5056 30.9999 26.6454 31.0026 27.5545 30.8901C28.5043 30.7722 29.4164 30.5058 30.1544 29.8229L28.1041 27.9296C27.9939 28.0313 27.7967 28.1572 27.1674 28.2362C26.4975 28.3192 25.5868 28.3219 24.1789 28.3219V30.9999Z" fill="white"/>
<path d="M5.32847 16.2708L14.2781 8.00649C16.2109 6.22161 17.1781 5.3285 18.3787 5.3285C19.5794 5.3285 20.5465 6.22161 22.4794 8.00649L31.429 16.2708" stroke="white" stroke-width="10.5892" stroke-linecap="round"/>
<path d="M14.0283 24.3046C14.0283 23.0567 14.0283 22.4327 14.2488 21.9413C14.3945 21.6162 14.6082 21.3208 14.8777 21.0719C15.1471 20.8231 15.467 20.6258 15.8191 20.4912C16.3513 20.2877 17.027 20.2877 18.3784 20.2877C19.7299 20.2877 20.4056 20.2877 20.9377 20.4912C21.2898 20.6258 21.6098 20.8231 21.8792 21.0719C22.1487 21.3208 22.3624 21.6162 22.5081 21.9413C22.7285 22.4327 22.7285 23.0567 22.7285 24.3046V29.6606H14.0283V24.3046ZM24.1786 7.56721C24.1786 6.94324 24.1786 6.63126 24.2888 6.38488C24.4362 6.05745 24.7184 5.79741 25.0732 5.66182C25.34 5.55872 25.6779 5.55872 26.3536 5.55872C27.0293 5.55872 27.3672 5.55872 27.634 5.66049C27.9886 5.79667 28.2702 6.05719 28.417 6.38488C28.5286 6.63126 28.5286 6.94324 28.5286 7.56721V14.9317L24.1786 10.2452V7.56721Z" fill="white"/>
</svg>
