<svg width="29" height="29" viewBox="0 0 29 29" fill="none" xmlns="http://www.w3.org/2000/svg">
<path d="M14.5 29C6.48991 29 0 22.5101 0 14.5C0 6.48991 6.48991 0 14.5 0C22.5101 0 29 6.48991 29 14.5C29 22.5101 22.5101 29 14.5 29ZM16.1897 20.604L11.7754 16.371H22.4516C23.2292 16.371 23.8548 15.7454 23.8548 14.9677V14.0322C23.8548 13.2546 23.2292 12.629 22.4516 12.629H11.7754L16.1897 8.39596C16.7568 7.85221 16.7685 6.94596 16.2131 6.39052L15.5699 5.75322C15.0204 5.20363 14.1316 5.20363 13.5879 5.75322L5.82923 13.506C5.27963 14.0556 5.27963 14.9443 5.82923 15.4881L13.5879 23.2468C14.1375 23.7964 15.0262 23.7964 15.5699 23.2468L16.2131 22.6095C16.7685 22.054 16.7568 21.1478 16.1897 20.604Z" fill="#0066F2"/>
</svg>
