<svg width="360" height="60" viewBox="0 0 360 60" fill="none" xmlns="http://www.w3.org/2000/svg">
<rect x="1" width="359" height="60" rx="17" fill="white"/>
<line y1="58.5" x2="360" y2="58.5" stroke="#0059D4" stroke-width="3"/>
<path d="M30.2487 35.6594C28.4871 35.6594 27.64 36.6415 24.7491 36.6415C21.8581 36.6415 21.0172 35.6594 19.2494 35.6594C14.6951 35.6594 11 39.3545 11 43.9089V45.4802C11 47.1068 12.3197 48.4264 13.9462 48.4264H35.5519C37.1784 48.4264 38.4981 47.1068 38.4981 45.4802V43.9089C38.4981 39.3545 34.8031 35.6594 30.2487 35.6594ZM35.5519 45.4802H13.9462V43.9089C13.9462 40.9872 16.3278 38.6057 19.2494 38.6057C20.1456 38.6057 21.6003 39.5877 24.7491 39.5877C27.9224 39.5877 29.3464 38.6057 30.2487 38.6057C33.1704 38.6057 35.5519 40.9872 35.5519 43.9089V45.4802ZM24.7491 34.6774C29.6287 34.6774 33.5877 30.7184 33.5877 25.8387C33.5877 20.959 29.6287 17 24.7491 17C19.8694 17 15.9104 20.959 15.9104 25.8387C15.9104 30.7184 19.8694 34.6774 24.7491 34.6774ZM24.7491 19.9462C27.996 19.9462 30.6415 22.5917 30.6415 25.8387C30.6415 29.0857 27.996 31.7311 24.7491 31.7311C21.5021 31.7311 18.8566 29.0857 18.8566 25.8387C18.8566 22.5917 21.5021 19.9462 24.7491 19.9462Z" fill="#0066F2"/>
</svg>
