<svg width="35" height="33" viewBox="0 0 35 33" fill="none" xmlns="http://www.w3.org/2000/svg">
<path d="M28.7 1.61599C28.7 1.18741 28.5156 0.776371 28.1874 0.473314C27.8592 0.170256 27.4141 0 26.95 0C26.4859 0 26.0407 0.170256 25.7126 0.473314C25.3844 0.776371 25.2 1.18741 25.2 1.61599H28.7ZM25.2 7.43357C25.2 7.86216 25.3844 8.2732 25.7126 8.57625C26.0407 8.87931 26.4859 9.04957 26.95 9.04957C27.4141 9.04957 27.8592 8.87931 28.1874 8.57625C28.5156 8.2732 28.7 7.86216 28.7 7.43357H25.2ZM9.8 1.61599C9.8 1.18741 9.61563 0.776371 9.28744 0.473314C8.95925 0.170256 8.51413 0 8.05 0C7.58588 0 7.14076 0.170256 6.81257 0.473314C6.48438 0.776371 6.3 1.18741 6.3 1.61599H9.8ZM6.3 7.43357C6.3 7.86216 6.48438 8.2732 6.81257 8.57625C7.14076 8.87931 7.58588 9.04957 8.05 9.04957C8.51413 9.04957 8.95925 8.87931 9.28744 8.57625C9.61563 8.2732 9.8 7.86216 9.8 7.43357H6.3ZM31.5 10.9888V24.2399H35V10.9888H31.5ZM26.25 29.0879H8.75V32.3199H26.25V29.0879ZM3.50001 24.2399V10.9888H7.23121e-06V24.2399H3.50001ZM8.75175 6.14078H26.2465V2.90879H8.75525V6.14078H8.75175ZM33.25 11.6352H1.75001V14.8671H33.25V11.6352ZM25.2 1.61599V7.43357H28.7V1.61599H25.2ZM6.3 1.61599V7.43357H9.8V1.61599H6.3ZM8.75 29.0879C7.05075 29.0879 5.95175 29.0847 5.14326 28.9845C4.38376 28.8891 4.14576 28.7372 4.01276 28.6144L1.53826 30.8994C2.43076 31.7236 3.52976 32.0452 4.67601 32.1874C5.775 32.3231 7.14875 32.3199 8.75 32.3199V29.0879ZM7.23121e-06 24.2399C7.23121e-06 25.7185 -0.00349273 26.9887 0.143507 28.0019C0.297507 29.0604 0.645757 30.0769 1.53826 30.8994L4.01276 28.6144C3.87976 28.4916 3.71526 28.2718 3.61201 27.5705C3.50351 26.8255 3.50001 25.809 3.50001 24.2399H7.23121e-06ZM31.5 24.2399C31.5 25.809 31.4965 26.8239 31.388 27.5705C31.2847 28.2718 31.1202 28.4916 30.9872 28.6144L33.4617 30.8994C34.3542 30.0753 34.7025 29.0604 34.8565 28.0019C35.0035 26.9871 35 25.7185 35 24.2399H31.5ZM26.25 32.3199C27.8512 32.3199 29.2267 32.3231 30.324 32.1874C31.4702 32.0452 32.571 31.7236 33.4617 30.8994L30.9872 28.6144C30.8542 28.7372 30.6162 28.8891 29.8567 28.9845C29.0482 29.0847 27.9492 29.0879 26.25 29.0879V32.3199ZM35 10.9888C35 9.51013 35.0035 8.23995 34.8565 7.22673C34.7025 6.16825 34.3542 5.15179 33.4617 4.32925L30.9872 6.61426C31.1202 6.73708 31.2847 6.95685 31.388 7.6582C31.4965 8.40478 31.5 9.41963 31.5 10.9888H35ZM26.2482 6.14078C27.9475 6.14078 29.0482 6.14401 29.8567 6.2442C30.6162 6.33954 30.8542 6.49145 30.9872 6.61426L33.4617 4.32925C32.5692 3.50509 31.4702 3.18351 30.3222 3.0413C29.225 2.90556 27.8495 2.90879 26.25 2.90879L26.2482 6.14078ZM3.50001 10.9888C3.50001 9.41963 3.50351 8.40478 3.61201 7.6582C3.71526 6.95685 3.87976 6.73708 4.01276 6.61426L1.53826 4.32925C0.645757 5.1534 0.297507 6.16825 0.143507 7.22673C-0.00349273 8.24157 7.23121e-06 9.51013 7.23121e-06 10.9888H3.50001ZM8.75175 2.90879C7.1505 2.90879 5.775 2.90556 4.67775 3.0413C3.52976 3.18351 2.42901 3.50509 1.53826 4.32925L4.01276 6.61426C4.14576 6.49145 4.38376 6.33954 5.14326 6.2442C5.9535 6.14401 7.05075 6.14078 8.75175 6.14078V2.90879Z" fill="white"/>
</svg>
