<svg width="35" height="33" viewBox="0 0 35 33" fill="none" xmlns="http://www.w3.org/2000/svg">
<path d="M34.524 28.4011L27.7081 22.0049C27.4004 21.7162 26.9834 21.5558 26.5459 21.5558H25.4315C27.3184 19.2912 28.4396 16.4427 28.4396 13.3441C28.4396 5.97276 22.0748 0 14.2198 0C6.36472 0 0 5.97276 0 13.3441C0 20.7154 6.36472 26.6882 14.2198 26.6882C17.5218 26.6882 20.5572 25.6361 22.9704 23.8654V24.9111C22.9704 25.3217 23.1413 25.713 23.449 26.0017L30.2649 32.3979C30.9075 33.001 31.9467 33.001 32.5824 32.3979L34.5172 30.5824C35.1598 29.9793 35.1598 29.0042 34.524 28.4011ZM14.2198 21.5558C9.38643 21.5558 5.46915 17.8862 5.46915 13.3441C5.46915 8.80838 9.37959 5.13234 14.2198 5.13234C19.0531 5.13234 22.9704 8.80197 22.9704 13.3441C22.9704 17.8798 19.06 21.5558 14.2198 21.5558Z" fill="white"/>
</svg>
