<svg width="360" height="60" viewBox="0 0 360 60" fill="none" xmlns="http://www.w3.org/2000/svg">
<rect x="1" width="359" height="60" rx="17" fill="white"/>
<line y1="57.5" x2="360" y2="57.5" stroke="#0059D4" stroke-width="3"/>
<path d="M32.1071 28.5H30.6607V24.1607C30.6607 19.1103 26.5504 15 21.5 15C16.4496 15 12.3393 19.1103 12.3393 24.1607V28.5H10.8929C9.29576 28.5 8 29.7958 8 31.3929V42.9643C8 44.5614 9.29576 45.8571 10.8929 45.8571H32.1071C33.7042 45.8571 35 44.5614 35 42.9643V31.3929C35 29.7958 33.7042 28.5 32.1071 28.5ZM25.8393 28.5H17.1607V24.1607C17.1607 21.7681 19.1074 19.8214 21.5 19.8214C23.8926 19.8214 25.8393 21.7681 25.8393 24.1607V28.5Z" fill="#0066F2"/>
</svg>
