<svg width="26" height="30" viewBox="0 0 26 30" fill="none" xmlns="http://www.w3.org/2000/svg">
<path d="M25.5003 21.0257C24.3791 19.8209 22.2811 18.0085 22.2811 12.0714C22.2811 7.56205 19.1193 3.95223 14.856 3.0666V1.85714C14.856 0.831651 14.0249 0 13 0C11.9751 0 11.144 0.831651 11.144 1.85714V3.0666C6.88075 3.95223 3.71897 7.56205 3.71897 12.0714C3.71897 18.0085 1.62098 19.8209 0.499727 21.0257C0.151513 21.4001 -0.00286166 21.8475 4.01252e-05 22.2857C0.00642405 23.2375 0.753343 24.1428 1.86298 24.1428H24.1371C25.2467 24.1428 25.9942 23.2375 26 22.2857C26.0029 21.8475 25.8485 21.3995 25.5003 21.0257ZM3.91919 21.3571C5.15071 19.7339 6.49713 17.0433 6.50352 12.1051C6.50352 12.0935 6.50003 12.083 6.50003 12.0714C6.50003 8.48133 9.40994 5.57142 13 5.57142C16.5901 5.57142 19.5 8.48133 19.5 12.0714C19.5 12.083 19.4965 12.0935 19.4965 12.1051C19.5029 17.0439 20.8494 19.7344 22.0809 21.3571H3.91919ZM13 29.7143C15.0498 29.7143 16.7126 28.0515 16.7126 26H9.28749C9.28749 28.0515 10.9502 29.7143 13 29.7143Z" fill="white"/>
</svg>