<svg width="31" height="24" viewBox="0 0 31 24" fill="none" xmlns="http://www.w3.org/2000/svg">
<path d="M30.571 12.8571L20.2371 23.191C19.3144 24.1136 17.7152 23.4678 17.7152 22.1453V16.2402H9.34967C8.53157 16.2402 7.87341 15.582 7.87341 14.7639V8.85889C7.87341 8.0408 8.53157 7.38263 9.34967 7.38263H17.7152V1.47757C17.7152 0.161237 19.3083 -0.49078 20.2371 0.431885L30.571 10.7657C31.143 11.3439 31.143 12.2789 30.571 12.8571ZM11.8101 22.8834V20.423C11.8101 20.017 11.478 19.6848 11.072 19.6848H5.90506C4.81631 19.6848 3.9367 18.8052 3.9367 17.7165V5.90636C3.9367 4.81762 4.81631 3.93801 5.90506 3.93801H11.072C11.478 3.93801 11.8101 3.60585 11.8101 3.19988V0.73944C11.8101 0.333468 11.478 0.00130825 11.072 0.00130825H5.90506C2.64497 0.00130825 0 2.64628 0 5.90636V17.7165C0 20.9766 2.64497 23.6215 5.90506 23.6215H11.072C11.478 23.6215 11.8101 23.2894 11.8101 22.8834Z" fill="black"/>
</svg>